<svg width="173" height="43" viewBox="0 0 173 43" fill="none" xmlns="http://www.w3.org/2000/svg">
<rect width="7.73579" height="22.144" rx="3.8679" transform="matrix(-0.865206 0.501417 0.498585 0.866841 42.9594 10.7793)" fill="#007FEE"/>
<path d="M30.7295 30.091C31.7946 31.9427 34.1562 32.5755 36.0045 31.5044V31.5044C37.8527 30.4333 38.4876 28.0639 37.4225 26.2121L28.061 9.93616C26.9959 8.08443 24.6342 7.45162 22.786 8.52274V8.52274C20.9378 9.59385 20.3029 11.9633 21.368 13.815L30.7295 30.091Z" fill="#007FEE"/>
<path d="M44.8422 14.1317C43.7772 12.2799 41.4155 11.6471 39.5672 12.7182V12.7182C37.719 13.7894 37.0841 16.1588 38.1492 18.0105L45.3297 30.4946C46.3948 32.3464 48.7565 32.9792 50.6047 31.9081V31.9081C52.453 30.837 53.0878 28.4675 52.0228 26.6158L44.8422 14.1317Z" fill="url(#paint0_linear_420_1357)" fill-opacity="0.4"/>
<rect width="7.73579" height="22.144" rx="3.8679" transform="matrix(0.865206 0.501417 -0.498585 0.866841 40.0698 10.7793)" fill="#007FEE"/>
<path d="M28.0612 9.93586C26.9961 8.08413 24.6344 7.45132 22.7862 8.52244V8.52244C20.9379 9.59355 20.303 11.963 21.3681 13.8147L30.9381 30.4531C32.0032 32.3049 34.3649 32.9377 36.2131 31.8666V31.8666C38.0613 30.7954 38.6962 28.426 37.6312 26.5743L28.0612 9.93586Z" fill="url(#paint1_linear_420_1357)" fill-opacity="0.4"/>
<path d="M21.29 9.93586C22.355 8.08413 24.7167 7.45132 26.565 8.52244V8.52244C28.4132 9.59355 29.0481 11.963 27.983 13.8147L18.6215 30.0907C17.5564 31.9424 15.1947 32.5752 13.3465 31.5041V31.5041C11.4983 30.433 10.8634 28.0636 11.9284 26.2118L21.29 9.93586Z" fill="#007FEE"/>
<path d="M62.9631 31H59.5881L65.733 13.5455H69.6364L75.7898 31H72.4148L67.7528 17.125H67.6165L62.9631 31ZM63.0739 24.1562H72.2784V26.696H63.0739V24.1562ZM92.5825 13.5455V31H89.77L81.5456 19.1108H81.4007V31H78.2388V13.5455H81.0683L89.2842 25.4432H89.4376V13.5455H92.5825ZM105.664 18.3438C105.584 17.5994 105.249 17.0199 104.658 16.6051C104.073 16.1903 103.311 15.983 102.374 15.983C101.715 15.983 101.149 16.0824 100.678 16.2812C100.206 16.4801 99.8455 16.75 99.5955 17.0909C99.3455 17.4318 99.2176 17.821 99.2119 18.2585C99.2119 18.6222 99.2943 18.9375 99.4591 19.2045C99.6295 19.4716 99.8597 19.6989 100.149 19.8864C100.439 20.0682 100.76 20.2216 101.112 20.3466C101.465 20.4716 101.82 20.5767 102.178 20.6619L103.814 21.071C104.473 21.2244 105.107 21.4318 105.715 21.6932C106.328 21.9545 106.877 22.2841 107.36 22.6818C107.848 23.0795 108.235 23.5597 108.519 24.1222C108.803 24.6847 108.945 25.3437 108.945 26.0994C108.945 27.1222 108.684 28.0227 108.161 28.8011C107.638 29.5739 106.882 30.179 105.894 30.6165C104.911 31.0483 103.72 31.2642 102.323 31.2642C100.965 31.2642 99.7858 31.054 98.7858 30.6335C97.7915 30.2131 97.0131 29.5994 96.4506 28.7926C95.8937 27.9858 95.5926 27.0028 95.5472 25.8438H98.658C98.7034 26.4517 98.8909 26.9574 99.2205 27.3608C99.55 27.7642 99.979 28.0653 100.507 28.2642C101.041 28.4631 101.638 28.5625 102.297 28.5625C102.985 28.5625 103.587 28.4602 104.104 28.2557C104.627 28.0455 105.036 27.7557 105.331 27.3864C105.627 27.0114 105.777 26.5739 105.783 26.0739C105.777 25.6193 105.644 25.2443 105.382 24.9489C105.121 24.6477 104.755 24.3977 104.283 24.1989C103.817 23.9943 103.272 23.8125 102.647 23.6534L100.661 23.142C99.2233 22.7727 98.0869 22.2131 97.2517 21.4631C96.4222 20.7074 96.0074 19.7045 96.0074 18.4545C96.0074 17.4261 96.2858 16.5256 96.8426 15.7528C97.4051 14.9801 98.1693 14.3807 99.1352 13.9545C100.101 13.5227 101.195 13.3068 102.416 13.3068C103.655 13.3068 104.74 13.5227 105.672 13.9545C106.61 14.3807 107.345 14.9744 107.88 15.7358C108.414 16.4915 108.689 17.3608 108.706 18.3438H105.664ZM111.777 31V17.9091H114.863V31H111.777ZM113.329 16.0511C112.84 16.0511 112.419 15.8892 112.067 15.5653C111.715 15.2358 111.539 14.8409 111.539 14.3807C111.539 13.9148 111.715 13.5199 112.067 13.196C112.419 12.8665 112.84 12.7017 113.329 12.7017C113.823 12.7017 114.243 12.8665 114.59 13.196C114.942 13.5199 115.118 13.9148 115.118 14.3807C115.118 14.8409 114.942 15.2358 114.59 15.5653C114.243 15.8892 113.823 16.0511 113.329 16.0511ZM123.878 36.1818C122.77 36.1818 121.819 36.0313 121.023 35.7301C120.228 35.4347 119.589 35.0369 119.106 34.5369C118.623 34.0369 118.287 33.483 118.1 32.875L120.878 32.2017C121.003 32.4574 121.185 32.7102 121.424 32.9602C121.662 33.2159 121.984 33.4261 122.387 33.5909C122.796 33.7614 123.31 33.8466 123.93 33.8466C124.805 33.8466 125.529 33.6335 126.103 33.2074C126.677 32.7869 126.964 32.0938 126.964 31.1278V28.6477H126.81C126.651 28.9659 126.418 29.2926 126.111 29.6278C125.81 29.9631 125.41 30.2443 124.91 30.4716C124.415 30.6989 123.793 30.8125 123.043 30.8125C122.037 30.8125 121.126 30.5767 120.307 30.1051C119.495 29.6278 118.847 28.9176 118.364 27.9744C117.887 27.0256 117.648 25.8381 117.648 24.4119C117.648 22.9744 117.887 21.7614 118.364 20.7727C118.847 19.7784 119.498 19.0256 120.316 18.5142C121.134 17.9972 122.046 17.7386 123.052 17.7386C123.819 17.7386 124.449 17.8693 124.944 18.1307C125.444 18.3864 125.841 18.696 126.137 19.0597C126.432 19.4176 126.657 19.7557 126.81 20.0739H126.981V17.9091H130.023V31.2131C130.023 32.3324 129.756 33.2585 129.222 33.9915C128.688 34.7244 127.958 35.2727 127.032 35.6364C126.106 36 125.055 36.1818 123.878 36.1818ZM123.904 28.392C124.557 28.392 125.114 28.233 125.574 27.9148C126.035 27.5966 126.384 27.1392 126.623 26.5426C126.861 25.946 126.981 25.2301 126.981 24.3949C126.981 23.571 126.861 22.8494 126.623 22.2301C126.39 21.6108 126.043 21.1307 125.583 20.7898C125.128 20.4432 124.569 20.2699 123.904 20.2699C123.216 20.2699 122.643 20.4489 122.182 20.8068C121.722 21.1648 121.376 21.6562 121.143 22.2812C120.91 22.9006 120.793 23.6051 120.793 24.3949C120.793 25.196 120.91 25.8977 121.143 26.5C121.381 27.0966 121.731 27.5625 122.191 27.8977C122.657 28.2273 123.228 28.392 123.904 28.392ZM136.42 23.3295V31H133.335V13.5455H136.352V20.1335H136.506C136.813 19.3949 137.287 18.8125 137.929 18.3864C138.577 17.9545 139.401 17.7386 140.401 17.7386C141.31 17.7386 142.102 17.929 142.778 18.3097C143.455 18.6903 143.977 19.2472 144.347 19.9801C144.722 20.7131 144.909 21.608 144.909 22.6648V31H141.824V23.142C141.824 22.2614 141.597 21.5767 141.142 21.0881C140.693 20.5937 140.062 20.3466 139.25 20.3466C138.705 20.3466 138.216 20.4659 137.784 20.7045C137.358 20.9375 137.023 21.2756 136.778 21.7188C136.54 22.1619 136.42 22.6989 136.42 23.3295ZM154.741 17.9091V20.2955H147.215V17.9091H154.741ZM149.073 14.7727H152.159V27.0625C152.159 27.4773 152.221 27.7955 152.346 28.017C152.477 28.233 152.647 28.3807 152.857 28.4602C153.068 28.5398 153.301 28.5795 153.556 28.5795C153.749 28.5795 153.926 28.5653 154.085 28.5369C154.249 28.5085 154.374 28.483 154.46 28.4602L154.98 30.8722C154.815 30.929 154.579 30.9915 154.272 31.0597C153.971 31.1278 153.602 31.1676 153.164 31.179C152.391 31.2017 151.695 31.0852 151.076 30.8295C150.457 30.5682 149.965 30.1648 149.602 29.6193C149.244 29.0739 149.068 28.392 149.073 27.5739V14.7727Z" fill="#262B43" fill-opacity="0.9"/>
<defs>
<linearGradient id="paint0_linear_420_1357" x1="33.3022" y1="16.3482" x2="44.4024" y2="35.5017" gradientUnits="userSpaceOnUse">
<stop/>
<stop offset="1" stop-opacity="0"/>
</linearGradient>
<linearGradient id="paint1_linear_420_1357" x1="16.5211" y1="12.1522" x2="30.0242" y2="35.4522" gradientUnits="userSpaceOnUse">
<stop/>
<stop offset="1" stop-opacity="0"/>
</linearGradient>
</defs>
</svg>
